{"title":"The.Ward.2011.DvDScr.XviD.Feel-Free","uid":6435449,"size":780903569,"categoryP":"video","categoryS":"movies","magnet":"?xt=urn:btih:ee4e2932163ab2280a5cc0011a744a099f0bfa50&amp;dn=The.Ward.2011.DvDScr.XviD.Feel-Free&amp;tr=udp%3A%2F%2Ftracker.openbittorrent.com%3A80&amp;tr=udp%3A%2F%2Fopen.demonii.com%3A1337&amp;tr=udp%3A%2F%2Ftracker.coppersurfer.tk%3A6969&amp;tr=udp%3A%2F%2Fexodus.desync.com%3A6969","seeders":1,"leechers":2,"uploader":".BONE.","files":10,"time":1306795787,"description":"Genre:Horror | Thriller\n Language:English\n  &lt;a href=&quot;\nhttp://www.imdb.com/title/tt1369706/&quot; rel=&quot;nofollow&quot; target=&quot;_NEW&quot;&gt;\nhttp://www.imdb.com/title/tt1369706/&lt;/a&gt;\n\n Source:DvDScr Thanks!\n \nFormat : AVI\n Format/Info : Audio Video Interleave\n File size : 743 MiB\n Duration : 1h 32mn\n Overall bit rate : 1 127 Kbps\n \nVideo\n ID : 0\n Format : MPEG-4 Visual\n Format profile : Advanced Simple@L5\n Format settings, BVOP : Yes\n Format settings, QPel : No\n Format settings, GMC : No warppoints\n Format settings, Matrix : Default (H.263)\n Codec ID : XVID\n Codec ID/Hint : XviD\n Duration : 1h 32mn\n Bit rate : 926 Kbps\n Width : 640 pixels\n Height : 272 pixels\n Display aspect ratio : 2.35:1\n Frame rate : 23.976 fps\n Color space : YUV\n Chroma subsampling : 4:2:0\n Bit depth : 8 bits\n Scan type : Progressive\n Bits/(Pixel*Frame) : 0.222\n Stream size : 611 MiB (82%)\n Writing library : XviD 1.2.1 (UTC 2008-12-04)\n \nAudio\n ID : 1\n Format : AC-3\n Format/Info : Audio Coding 3\n Mode extension : CM (complete main)\n Codec ID : 2000\n Duration : 1h 32mn\n Bit rate mode : Constant\n Bit rate : 192 Kbps\n Channel(s) : 2 channels\n Channel positions : Front: L R\n Sampling rate : 48.0 KHz\n Bit depth : 16 bits\n Stream size : 127 MiB (17%)\n Alignment : Aligned on interleaves\n Interleave, duration : 42 ms (1.00 video frame)\n Interleave, preload duration : 512 ms\n \n\nPlot:\n A thriller centered on an institutionalized young woman who becomes terrorized by a ghost.\n \n","torrent":{"xt":"urn:btih:ee4e2932163ab2280a5cc0011a744a099f0bfa50","amp;dn":"The.Ward.2011.DvDScr.XviD.Feel-Free","amp;tr":["udp%3A%2F%2Ftracker.openbittorrent.com%3A80","udp%3A%2F%2Fopen.demonii.com%3A1337","udp%3A%2F%2Ftracker.coppersurfer.tk%3A6969","udp%3A%2F%2Fexodus.desync.com%3A6969"],"infoHash":"ee4e2932163ab2280a5cc0011a744a099f0bfa50","infoHashBuffer":{"type":"Buffer","data":[238,78,41,50,22,58,178,40,10,92,192,1,26,116,74,9,159,11,250,80]},"announce":[],"urlList":[]}}